<svg xmlns="http://www.w3.org/2000/svg" width="52" height="53" fill="none"><g filter="url(#a)"><path fill="#FF7500" fill-rule="evenodd" d="M28.46.129c1.427.364 2.397 1.437 2.397 2.649v13.889h13.714c1.279 0 2.451.576 3.041 1.495.59.918.501 2.027-.232 2.875l-24 27.778c-.858.993-2.412 1.42-3.84 1.056-1.427-.364-2.397-1.437-2.397-2.649V33.333H3.429c-1.279 0-2.451-.576-3.041-1.495-.59-.918-.501-2.027.232-2.875l24-27.778c.858-.993 2.412-1.42 3.84-1.056Z" clip-rule="evenodd"/></g><defs><filter id="a" width="56" height="58" x="-4" y="0" color-interpolation-filters="sRGB" filterUnits="userSpaceOnUse"><feFlood flood-opacity="0" result="BackgroundImageFix"/><feColorMatrix in="SourceAlpha" result="hardAlpha" values="0 0 0 0 0 0 0 0 0 0 0 0 0 0 0 0 0 0 127 0"/><feOffset dy="4"/><feGaussianBlur stdDeviation="2"/><feComposite in2="hardAlpha" operator="out"/><feColorMatrix values="0 0 0 0 0 0 0 0 0 0 0 0 0 0 0 0 0 0 0.25 0"/><feBlend in2="BackgroundImageFix" result="effect1_dropShadow_3_115"/><feBlend in="SourceGraphic" in2="effect1_dropShadow_3_115" result="shape"/></filter></defs></svg>